<?xml version="1.0" encoding="UTF-8" standalone="no"?>
<svg
   xml:space="preserve"
   width="300"
   height="300"
   version="1.1"
   id="svg1"
   sodipodi:docname="youtube.svg"
   inkscape:version="1.3.2 (091e20ef0f, 2023-11-25, custom)"
   xmlns:inkscape="http://www.inkscape.org/namespaces/inkscape"
   xmlns:sodipodi="http://sodipodi.sourceforge.net/DTD/sodipodi-0.dtd"
   xmlns="http://www.w3.org/2000/svg"
   xmlns:svg="http://www.w3.org/2000/svg"><defs
   id="defs1" /><sodipodi:namedview
   id="namedview1"
   pagecolor="#ffffff"
   bordercolor="#000000"
   borderopacity="0.25"
   inkscape:showpageshadow="2"
   inkscape:pageopacity="0.0"
   inkscape:pagecheckerboard="0"
   inkscape:deskcolor="#d1d1d1"
   inkscape:zoom="2.7933333"
   inkscape:cx="150"
   inkscape:cy="150"
   inkscape:window-width="1920"
   inkscape:window-height="1020"
   inkscape:window-x="0"
   inkscape:window-y="0"
   inkscape:window-maximized="1"
   inkscape:current-layer="svg1" />
  <g
   transform="scale(.75)"
   id="g1"
   style="fill:#ffffff">
    <path
   id="rect1"
   d="M 200 0 C 89.200111 0 0 89.200111 0 200 C 0 310.79989 89.200111 400 200 400 C 310.79989 400 400 310.79989 400 200 C 400 89.200111 310.79989 0 200 0 z M 199.91667 105.63021 C 199.91667 105.63021 284.37559 105.63048 305.53125 111.46094 C 317.02563 114.45947 326.18637 123.62028 329.1849 135.11458 C 335.01541 156.2707 334.84896 200.25 334.84896 200.25 C 334.84896 200.25 334.8488 244.06234 329.1849 265.05208 C 326.18637 276.71285 317.02563 285.70732 305.53125 288.8724 C 284.37559 294.36971 199.91667 294.36979 199.91667 294.36979 C 199.91667 294.36979 115.79144 294.36956 94.46875 288.70573 C 82.974457 285.54059 73.813536 276.37957 70.648438 264.88542 C 65.151172 244.06229 65.151042 200.08333 65.151042 200.08333 C 65.151042 200.08333 65.151172 156.2707 70.648438 135.11458 C 73.813536 123.62028 83.141045 114.29267 94.46875 111.1276 C 115.62485 105.63029 199.91667 105.63021 199.91667 105.63021 z M 173.09635 159.60417 L 173.09635 240.39583 L 243.22917 200.08333 L 173.09635 159.60417 z "
   style="fill:#ffffff" />
    
  </g>
</svg>
